<?xml version="1.0" encoding="UTF-8" ?>
<!DOCTYPE svg PUBLIC "-//W3C//DTD SVG 1.1//EN" "http://www.w3.org/Graphics/SVG/1.1/DTD/svg11.dtd">
<svg width="512" height="512" viewBox="0 0 512 512" version="1.1" xmlns="http://www.w3.org/2000/svg">
	<g id="#efefefff">
	</g>
	<g id="#fdaf1aff">
		<path fill="#fdaf1a" opacity="1.00" d=" M 227.83 47.86 C 239.08 45.65 250.61 46.70 261.99 46.47 C 270.79 46.23 279.56 47.25 288.08 49.39 C 298.03 49.95 307.35 53.59 316.99 55.72 C 320.13 57.59 323.97 57.73 327.11 59.67 C 334.90 62.82 342.71 65.92 350.37 69.41 C 369.97 76.87 383.99 93.13 398.55 107.48 C 402.78 111.69 405.60 117.04 409.62 121.43 C 413.48 125.58 416.91 130.15 419.79 135.04 C 422.52 139.38 420.37 144.51 420.48 149.24 C 420.22 149.36 419.71 149.61 419.45 149.73 C 419.47 153.09 419.11 156.44 418.52 159.75 C 418.27 161.26 418.02 162.76 417.77 164.27 C 415.15 180.58 412.63 196.90 410.32 213.27 C 408.77 221.64 408.44 230.18 406.69 238.52 C 406.66 239.65 406.69 240.78 406.73 241.91 L 406.35 242.57 C 405.69 243.60 405.55 244.82 405.39 245.99 C 404.67 252.38 402.89 258.69 403.59 265.16 C 398.93 258.40 393.59 251.96 386.81 247.21 C 379.13 241.93 370.21 238.66 361.11 236.88 C 356.66 235.97 352.05 236.29 347.62 235.29 C 346.12 235.00 345.33 233.57 344.71 232.33 C 342.86 228.39 341.89 224.13 340.95 219.91 C 346.62 219.44 352.32 219.57 358.01 219.66 C 369.85 220.78 381.19 211.95 384.76 200.94 C 387.03 190.30 388.62 179.52 390.97 168.89 C 391.79 163.37 393.68 157.97 393.68 152.36 C 393.30 140.40 382.73 130.17 371.02 129.06 C 353.65 127.23 336.36 124.65 319.04 122.46 C 307.27 122.38 295.73 118.32 283.94 119.81 C 274.68 121.46 266.95 128.96 263.92 137.71 C 261.55 150.68 262.87 163.92 261.98 177.01 C 261.52 184.11 261.54 191.23 261.68 198.35 C 255.02 197.36 248.47 199.23 241.89 199.85 C 243.35 199.43 244.79 198.93 246.22 198.40 C 246.67 198.23 247.57 197.88 248.02 197.71 C 248.98 189.18 248.19 180.56 248.11 172.01 C 247.24 161.20 248.31 150.26 246.44 139.54 C 244.69 130.18 237.00 122.65 227.96 120.14 C 221.06 118.56 213.98 119.96 207.09 120.87 C 200.62 121.95 194.03 122.03 187.57 123.22 C 183.10 124.00 178.55 124.17 174.03 124.50 C 164.64 125.43 155.38 127.35 145.97 128.09 C 142.12 128.50 138.17 128.54 134.45 129.70 C 124.77 133.21 116.21 142.21 116.47 153.02 C 116.93 160.30 119.42 167.32 119.38 174.67 C 119.77 174.23 120.16 173.78 120.56 173.34 C 120.70 177.93 121.89 182.37 122.93 186.82 C 124.39 192.87 123.88 199.45 127.04 205.01 C 131.30 213.96 141.08 219.94 151.01 219.48 C 157.21 219.34 163.47 219.85 169.64 218.93 C 168.11 223.87 167.13 229.06 164.59 233.61 C 163.54 235.66 160.96 235.56 159.00 235.84 C 144.06 236.47 128.84 241.45 117.75 251.75 C 113.22 255.55 109.86 260.44 106.44 265.21 C 107.24 257.58 104.73 250.20 104.49 242.63 C 104.31 241.11 104.02 239.61 103.71 238.11 C 102.70 233.45 101.92 228.73 101.63 223.97 C 101.39 217.91 98.92 212.10 99.61 205.97 C 99.21 206.99 98.80 208.00 98.40 209.02 C 98.87 201.88 96.12 195.07 96.12 187.96 C 94.85 179.98 93.14 172.06 92.58 163.97 C 92.39 162.28 92.13 160.60 91.76 158.94 C 90.21 153.73 90.93 148.19 89.22 143.00 C 87.56 138.01 91.68 133.89 93.87 129.83 C 96.22 125.31 100.37 122.12 102.84 117.69 C 104.83 114.48 107.98 112.28 110.40 109.44 C 117.23 100.97 125.54 93.88 132.98 85.97 C 146.09 74.38 162.28 67.11 178.31 60.52 C 186.40 57.72 194.47 54.46 203.00 53.32 C 206.69 50.58 211.66 51.13 215.87 49.71 C 219.73 48.37 223.83 48.44 227.83 47.86 M 225.11 61.99 C 197.93 64.82 171.25 74.06 148.75 89.69 C 137.73 96.02 129.51 105.93 121.45 115.51 C 119.21 118.26 117.28 121.26 115.57 124.37 C 117.38 125.00 119.28 124.86 121.12 124.49 C 137.03 121.45 152.97 118.48 169.00 116.18 C 186.45 113.78 203.83 110.68 221.43 109.64 C 236.20 107.41 251.15 108.49 266.02 108.30 C 275.03 108.76 284.01 109.92 293.03 110.29 C 303.39 110.69 313.57 112.96 323.91 113.48 C 337.16 115.84 350.63 116.85 363.88 119.36 C 373.96 120.62 383.84 123.34 393.97 124.16 C 390.32 117.69 384.45 112.93 379.25 107.76 C 373.96 103.74 369.68 98.52 364.06 94.92 C 358.99 91.56 353.53 88.83 348.48 85.44 C 326.25 72.71 301.32 64.85 275.89 61.96 C 267.37 60.20 258.64 60.73 250.00 60.66 C 241.69 60.72 233.29 60.24 225.11 61.99 Z" />
	</g>
	<g id="#ffce03ff">
		<path fill="#ffce03" opacity="1.00" d=" M 225.11 61.99 C 233.29 60.24 241.69 60.72 250.00 60.66 C 258.64 60.73 267.37 60.20 275.89 61.96 C 301.32 64.85 326.25 72.71 348.48 85.44 C 353.53 88.83 358.99 91.56 364.06 94.92 C 369.68 98.52 373.96 103.74 379.25 107.76 C 384.45 112.93 390.32 117.69 393.97 124.16 C 383.84 123.34 373.96 120.62 363.88 119.36 C 350.63 116.85 337.16 115.84 323.91 113.48 C 313.57 112.96 303.39 110.69 293.03 110.29 C 284.01 109.92 275.03 108.76 266.02 108.30 C 251.15 108.49 236.20 107.41 221.43 109.64 C 203.83 110.68 186.45 113.78 169.00 116.18 C 152.97 118.48 137.03 121.45 121.12 124.49 C 119.28 124.86 117.38 125.00 115.57 124.37 C 117.28 121.26 119.21 118.26 121.45 115.51 C 129.51 105.93 137.73 96.02 148.75 89.69 C 171.25 74.06 197.93 64.82 225.11 61.99 M 229.83 76.89 C 226.48 79.15 227.38 83.58 227.43 87.03 C 227.58 89.48 228.15 93.24 231.18 93.54 C 235.06 93.82 239.38 94.23 242.70 91.78 C 242.70 91.27 242.70 90.25 242.70 89.74 C 243.21 89.74 244.23 89.74 244.74 89.74 C 248.14 94.62 255.20 94.86 260.06 92.18 C 261.98 87.46 263.70 81.29 260.15 76.93 C 256.51 75.21 252.20 75.24 248.42 76.48 C 247.20 76.77 246.17 77.80 246.32 79.12 C 245.13 79.43 243.94 79.74 242.75 80.05 C 242.85 78.07 240.91 76.25 238.94 76.42 C 235.92 76.37 232.75 75.98 229.83 76.89 M 264.42 76.39 C 264.25 81.63 264.19 86.87 263.74 92.10 C 267.46 93.70 272.05 94.12 275.85 92.88 C 277.89 88.96 271.73 89.51 269.39 89.40 C 268.67 84.99 269.73 80.54 268.97 76.15 C 267.45 76.23 265.94 76.31 264.42 76.39 M 219.59 77.49 C 219.32 79.55 219.90 81.92 218.75 83.74 C 217.38 84.41 215.68 84.81 214.21 84.25 C 212.88 82.61 212.75 80.35 212.19 78.39 C 211.30 78.49 209.53 78.68 208.65 78.78 C 208.23 84.21 209.61 89.56 209.47 94.99 C 211.06 95.31 212.68 95.51 214.31 95.52 C 214.37 93.31 214.40 91.11 214.40 88.90 C 215.94 88.72 217.48 88.32 219.05 88.49 C 220.68 89.80 220.21 92.15 220.57 93.98 C 222.11 94.28 223.67 94.41 225.25 94.36 C 225.30 88.65 224.30 82.99 224.52 77.28 C 222.88 77.40 221.23 77.47 219.59 77.49 M 286.01 77.44 C 285.19 83.08 285.39 88.78 285.26 94.45 C 289.47 94.43 293.70 96.01 297.87 95.12 C 301.16 93.92 300.09 89.81 300.30 87.10 C 300.17 84.59 302.10 81.14 299.44 79.42 C 295.33 77.34 290.51 77.53 286.01 77.44 M 191.22 84.01 C 190.23 84.37 189.29 84.79 188.38 85.30 C 188.21 84.86 187.87 84.00 187.70 83.57 C 183.44 83.27 178.20 82.40 174.99 85.95 C 172.48 88.10 173.70 92.38 176.15 94.03 C 179.40 94.67 182.75 94.11 186.04 94.26 C 185.54 95.31 185.24 96.60 184.03 97.06 C 181.62 98.50 179.08 95.59 176.60 96.59 C 174.55 98.38 177.33 100.64 179.05 101.33 C 183.13 101.46 186.99 99.85 190.60 98.11 C 191.35 97.10 192.54 96.29 192.75 94.98 C 193.02 95.53 193.54 96.63 193.81 97.18 C 197.26 98.21 201.00 97.69 204.53 97.36 C 206.95 95.88 207.70 93.00 207.60 90.34 C 204.83 89.66 202.86 91.34 201.43 93.52 C 200.02 93.59 198.62 93.65 197.21 93.70 C 196.59 90.82 195.61 87.53 196.83 84.75 C 199.71 83.43 202.81 86.16 205.90 85.81 C 206.25 83.84 205.67 81.98 204.82 80.24 C 200.27 80.37 193.66 79.13 191.22 84.01 M 302.78 93.95 C 303.49 95.82 305.57 96.36 307.28 96.94 C 310.52 97.79 314.38 98.26 317.18 96.00 C 317.99 96.29 318.80 96.58 319.60 96.88 C 320.88 98.68 322.64 99.96 324.87 100.28 C 327.95 100.90 332.19 102.64 334.33 99.31 C 335.08 97.21 335.94 94.64 334.30 92.72 C 331.75 90.48 326.71 91.30 326.00 87.24 C 329.64 86.20 332.01 89.14 335.00 90.45 C 338.83 87.93 334.11 83.51 330.96 83.46 C 327.89 83.57 323.46 81.93 321.61 85.27 C 321.85 81.70 318.45 79.00 315.02 79.62 C 312.82 83.46 312.38 87.88 313.03 92.20 C 312.93 92.56 312.75 93.30 312.66 93.66 C 311.17 93.67 309.70 93.66 308.22 93.64 C 306.99 89.05 308.94 84.40 308.40 79.75 C 307.49 79.66 305.66 79.49 304.75 79.40 C 303.33 84.09 302.18 89.03 302.78 93.95 M 159.06 95.34 C 156.50 97.46 155.31 101.14 156.96 104.14 C 158.65 107.02 162.69 107.36 165.41 106.00 C 167.15 103.94 169.16 101.20 167.53 98.46 C 166.18 95.01 162.19 94.72 159.06 95.34 M 343.72 96.73 C 340.72 99.54 342.17 104.55 345.40 106.53 C 347.12 106.78 348.87 106.66 350.61 106.67 C 350.93 106.28 351.59 105.51 351.92 105.12 C 352.38 104.79 353.29 104.12 353.75 103.79 C 353.68 102.03 353.73 100.27 353.47 98.53 C 352.55 97.37 351.44 96.37 350.39 95.35 L 350.92 95.02 C 348.51 95.35 345.47 94.55 343.72 96.73 M 146.12 103.08 C 145.21 105.32 145.22 107.67 146.12 109.91 C 147.84 109.83 149.91 110.75 151.34 109.37 C 153.19 108.06 153.26 104.94 151.31 103.69 C 149.85 102.42 147.85 103.15 146.12 103.08 M 357.29 106.86 C 357.54 110.13 361.33 110.55 363.89 109.95 C 364.85 107.69 364.84 105.30 363.88 103.04 C 361.16 102.36 356.84 103.24 357.29 106.86 Z" />
		<path fill="#ffce03" opacity="1.00" d=" M 241.89 199.85 C 248.47 199.23 255.02 197.36 261.68 198.35 C 262.28 198.47 263.48 198.71 264.09 198.83 C 271.22 200.62 278.63 200.12 285.87 201.12 C 295.82 202.04 305.72 203.50 315.59 205.13 C 322.17 206.12 328.50 208.39 335.15 208.96 C 337.93 209.92 338.67 213.05 339.72 215.45 C 339.85 215.79 340.10 216.46 340.23 216.80 C 340.48 217.83 340.71 218.87 340.95 219.91 C 341.89 224.13 342.86 228.39 344.71 232.33 C 345.33 233.57 346.12 235.00 347.62 235.29 C 352.05 236.29 356.66 235.97 361.11 236.88 C 370.21 238.66 379.13 241.93 386.81 247.21 C 393.59 251.96 398.93 258.40 403.59 265.16 C 404.92 266.90 406.40 268.60 407.05 270.74 C 409.07 277.06 411.77 283.27 412.25 289.98 C 412.76 297.63 412.63 305.32 412.43 312.98 C 412.19 316.01 412.33 319.31 410.71 322.00 C 409.34 333.78 404.61 344.69 402.03 356.20 C 401.39 360.09 397.63 363.84 399.25 367.75 C 402.37 369.53 406.43 367.25 409.48 369.40 C 406.30 368.99 403.10 368.64 399.89 368.69 C 398.68 368.89 397.98 367.84 397.29 367.07 C 391.70 368.94 385.77 368.07 380.00 368.18 C 292.65 368.22 205.29 368.14 117.94 368.22 C 115.59 368.39 113.62 367.02 111.69 365.90 C 111.42 365.69 110.88 365.27 110.61 365.05 C 109.82 358.43 106.36 352.53 105.08 346.02 C 103.22 337.37 99.26 329.04 99.54 320.06 C 99.18 321.00 98.80 321.96 98.43 322.91 C 97.56 309.13 96.06 294.94 99.44 281.37 C 101.65 275.94 102.27 269.62 106.44 265.21 C 109.86 260.44 113.22 255.55 117.75 251.75 C 128.84 241.45 144.06 236.47 159.00 235.84 C 160.96 235.56 163.54 235.66 164.59 233.61 C 167.13 229.06 168.11 223.87 169.64 218.93 C 169.79 218.47 170.08 217.55 170.23 217.09 C 171.29 214.19 172.36 210.88 175.08 209.10 C 181.33 208.25 187.37 206.34 193.59 205.30 C 209.55 202.45 225.68 200.51 241.89 199.85 M 210.30 225.21 C 200.49 227.86 194.14 238.14 194.39 248.02 C 194.46 262.68 194.32 277.34 194.46 292.01 C 195.11 299.12 198.46 306.52 204.87 310.20 C 208.32 312.85 212.81 313.19 217.00 313.24 C 242.34 313.19 267.68 313.22 293.02 313.23 C 297.89 313.30 302.62 311.43 306.43 308.47 C 312.42 304.00 314.94 296.20 315.27 289.00 C 315.40 277.67 315.27 266.33 315.33 255.00 C 315.38 249.59 315.42 243.98 313.26 238.91 C 310.28 231.10 302.67 224.49 294.03 224.59 C 269.69 224.64 245.34 224.62 221.00 224.61 C 217.44 224.66 213.79 224.27 210.30 225.21 M 136.84 260.97 C 129.59 264.24 123.93 270.59 121.42 278.13 C 121.16 278.43 120.64 279.03 120.38 279.33 C 118.83 284.37 118.81 290.25 121.26 295.01 C 123.08 299.39 125.36 303.77 128.96 306.97 C 132.04 309.86 136.02 311.51 139.95 312.90 C 144.54 315.49 150.56 315.57 155.21 313.08 C 168.12 309.87 177.06 296.11 175.15 283.02 C 173.93 276.83 171.49 270.61 166.69 266.31 C 159.03 258.63 146.71 257.23 136.84 260.97 M 356.35 259.17 C 344.74 259.91 335.60 269.45 332.57 280.21 C 332.28 284.86 331.93 289.67 332.93 294.25 C 334.76 298.43 337.02 302.52 340.00 306.00 C 344.01 309.38 348.50 312.96 353.97 313.30 C 358.30 313.62 362.71 313.79 367.03 313.11 C 375.52 311.13 382.70 304.50 385.48 296.24 C 391.49 282.94 383.63 266.29 370.58 260.72 C 365.95 259.67 361.13 258.32 356.35 259.17 M 351.05 321.13 C 349.43 322.32 347.86 323.59 346.31 324.88 C 346.49 327.29 345.46 330.47 347.88 332.09 C 350.17 334.14 353.83 334.18 356.13 332.12 C 358.62 330.42 357.89 326.94 357.55 324.41 C 356.26 322.07 353.35 321.82 351.05 321.13 M 134.32 329.62 C 135.31 332.82 138.98 333.45 141.83 333.92 L 141.83 333.19 C 143.58 331.86 146.11 330.54 145.76 327.92 C 146.31 324.80 143.53 322.93 141.12 321.75 C 136.83 320.83 132.43 325.46 134.32 329.62 M 151.55 326.44 C 150.86 328.86 152.87 330.77 153.99 332.68 C 155.99 333.10 158.21 334.39 160.17 333.15 C 162.90 331.67 166.03 328.31 163.84 325.12 C 162.75 322.32 159.70 321.82 157.10 321.38 C 154.93 322.60 152.27 323.79 151.55 326.44 M 367.39 322.35 C 365.33 323.64 363.82 326.15 364.40 328.63 C 365.08 331.84 368.57 333.87 371.71 333.53 C 375.68 332.46 377.25 327.15 375.19 323.80 C 373.47 321.40 369.88 321.19 367.39 322.35 M 175.67 348.00 C 175.89 350.74 176.28 354.24 179.19 355.48 C 178.69 356.63 180.48 357.16 181.08 357.89 C 184.56 360.33 189.03 359.37 193.00 359.55 C 199.21 359.26 205.50 360.12 211.66 359.09 C 216.07 359.80 220.55 359.50 225.00 359.53 C 257.32 359.55 289.65 359.49 321.97 359.56 C 327.22 358.51 331.94 353.55 331.53 348.01 C 331.55 345.13 331.07 341.17 328.07 339.94 C 325.81 335.99 321.05 335.73 317.00 335.75 C 274.32 335.81 231.65 335.73 188.98 335.79 C 182.19 335.34 175.77 341.20 175.67 348.00 M 129.41 342.33 C 126.91 344.18 125.81 347.49 126.60 350.49 C 128.33 353.35 131.47 355.64 134.96 355.40 C 143.65 355.38 152.35 355.42 161.05 355.37 C 164.02 355.50 167.12 353.84 168.01 350.87 C 169.92 346.79 166.79 341.00 162.03 341.45 C 152.69 341.39 143.33 341.47 133.99 341.42 C 132.47 341.60 130.65 341.24 129.41 342.33 M 340.85 342.82 C 338.90 345.00 339.39 348.29 339.71 350.96 C 341.46 354.52 345.83 355.97 349.56 355.18 C 354.37 355.52 359.18 355.41 364.00 355.40 C 368.66 355.36 373.48 355.95 377.92 354.18 C 382.48 351.24 381.60 342.69 376.00 341.57 C 366.35 341.22 356.67 341.57 347.00 341.41 C 344.93 341.61 342.35 341.01 340.85 342.82 Z" />
	</g>
	<g id="#484a4dff">
		<path fill="#484a4d" opacity="1.00" d=" M 229.83 76.89 C 232.75 75.98 235.92 76.37 238.94 76.42 C 240.91 76.25 242.85 78.07 242.75 80.05 C 242.81 83.28 242.68 86.51 242.70 89.74 C 242.70 90.25 242.70 91.27 242.70 91.78 C 239.38 94.23 235.06 93.82 231.18 93.54 C 228.15 93.24 227.58 89.48 227.43 87.03 C 227.38 83.58 226.48 79.15 229.83 76.89 M 232.31 80.30 C 231.83 83.28 231.39 86.46 232.78 89.29 C 234.70 90.19 236.79 89.33 238.70 88.85 C 238.61 86.16 239.12 83.34 238.24 80.76 C 236.39 79.94 234.27 80.42 232.31 80.30 Z" />
		<path fill="#484a4d" opacity="1.00" d=" M 248.42 76.48 C 252.20 75.24 256.51 75.21 260.15 76.93 C 263.70 81.29 261.98 87.46 260.06 92.18 C 255.84 92.13 250.73 93.90 247.17 90.93 C 245.61 87.28 246.38 83.02 246.32 79.12 C 246.17 77.80 247.20 76.77 248.42 76.48 M 250.36 80.20 C 250.42 82.89 249.95 85.68 250.73 88.30 C 252.54 89.44 254.60 88.86 256.56 88.61 C 256.98 85.86 257.09 83.06 256.66 80.30 C 254.59 79.65 252.44 79.69 250.36 80.20 Z" />
		<path fill="#484a4d" opacity="1.00" d=" M 321.61 85.27 C 323.46 81.93 327.89 83.57 330.96 83.46 C 334.11 83.51 338.83 87.93 335.00 90.45 C 332.01 89.14 329.64 86.20 326.00 87.24 C 326.71 91.30 331.75 90.48 334.30 92.72 C 335.94 94.64 335.08 97.21 334.33 99.31 C 332.19 102.64 327.95 100.90 324.87 100.28 C 322.64 99.96 320.88 98.68 319.60 96.88 C 320.20 95.89 320.80 94.90 321.40 93.91 C 323.58 95.26 325.68 96.85 328.16 97.61 C 329.62 98.16 330.97 96.81 330.73 95.35 C 328.14 93.79 325.15 93.00 322.63 91.33 C 321.29 89.61 321.79 87.28 321.61 85.27 Z" />
	</g>
	<g id="#4b4b4bff">
		<path fill="#4b4b4b" opacity="1.00" d=" M 264.42 76.39 C 265.94 76.31 267.45 76.23 268.97 76.15 C 269.73 80.54 268.67 84.99 269.39 89.40 C 271.73 89.51 277.89 88.96 275.85 92.88 C 272.05 94.12 267.46 93.70 263.74 92.10 C 264.19 86.87 264.25 81.63 264.42 76.39 Z" />
	</g>
	<g id="#4c4c4cff">
		<path fill="#4c4c4c" opacity="1.00" d=" M 219.59 77.49 C 221.23 77.47 222.88 77.40 224.52 77.28 C 224.30 82.99 225.30 88.65 225.25 94.36 C 223.67 94.41 222.11 94.28 220.57 93.98 C 220.21 92.15 220.68 89.80 219.05 88.49 C 217.48 88.32 215.94 88.72 214.40 88.90 C 214.40 91.11 214.37 93.31 214.31 95.52 C 212.68 95.51 211.06 95.31 209.47 94.99 C 209.61 89.56 208.23 84.21 208.65 78.78 C 209.53 78.68 211.30 78.49 212.19 78.39 C 212.75 80.35 212.88 82.61 214.21 84.25 C 215.68 84.81 217.38 84.41 218.75 83.74 C 219.90 81.92 219.32 79.55 219.59 77.49 Z" />
	</g>
	<g id="#4b4b4cff">
		<path fill="#4b4b4c" opacity="1.00" d=" M 286.01 77.44 C 290.51 77.53 295.33 77.34 299.44 79.42 C 302.10 81.14 300.17 84.59 300.30 87.10 C 300.09 89.81 301.16 93.92 297.87 95.12 C 293.70 96.01 289.47 94.43 285.26 94.45 C 285.39 88.78 285.19 83.08 286.01 77.44 M 290.11 81.89 C 290.50 82.82 290.89 83.74 291.27 84.67 C 292.79 84.72 294.32 84.76 295.85 84.80 C 295.71 83.67 295.58 82.55 295.45 81.42 C 293.66 81.41 291.87 81.56 290.11 81.89 M 290.10 87.07 C 290.28 88.37 289.35 90.43 290.92 91.15 C 292.24 91.87 293.95 92.00 295.34 91.37 C 295.57 90.30 295.79 89.23 295.99 88.15 C 294.06 87.61 292.09 87.24 290.10 87.07 Z" />
	</g>
	<g id="#b09324ff">
		<path fill="#b09324" opacity="1.00" d=" M 242.75 80.05 C 243.94 79.74 245.13 79.43 246.32 79.12 C 246.38 83.02 245.61 87.28 247.17 90.93 C 250.73 93.90 255.84 92.13 260.06 92.18 C 255.20 94.86 248.14 94.62 244.74 89.74 C 244.23 89.74 243.21 89.74 242.70 89.74 C 242.68 86.51 242.81 83.28 242.75 80.05 Z" />
	</g>
	<g id="#4a4b4dff">
		<path fill="#4a4b4d" opacity="1.00" d=" M 191.22 84.01 C 193.66 79.13 200.27 80.37 204.82 80.24 C 205.67 81.98 206.25 83.84 205.90 85.81 C 202.81 86.16 199.71 83.43 196.83 84.75 C 195.61 87.53 196.59 90.82 197.21 93.70 C 198.62 93.65 200.02 93.59 201.43 93.52 C 202.86 91.34 204.83 89.66 207.60 90.34 C 207.70 93.00 206.95 95.88 204.53 97.36 C 201.00 97.69 197.26 98.21 193.81 97.18 C 193.54 96.63 193.02 95.53 192.75 94.98 C 191.64 91.44 191.16 87.73 191.22 84.01 Z" />
		<path fill="#4a4b4d" opacity="1.00" d=" M 302.78 93.95 C 302.18 89.03 303.33 84.09 304.75 79.40 C 305.66 79.49 307.49 79.66 308.40 79.75 C 308.94 84.40 306.99 89.05 308.22 93.64 C 309.70 93.66 311.17 93.67 312.66 93.66 C 312.75 93.30 312.93 92.56 313.03 92.20 C 313.85 88.55 314.80 84.94 315.60 81.28 C 316.56 81.44 318.48 81.75 319.44 81.90 C 318.98 86.65 318.12 91.33 317.18 96.00 C 314.38 98.26 310.52 97.79 307.28 96.94 C 305.57 96.36 303.49 95.82 302.78 93.95 Z" />
	</g>
	<g id="#fbcd03ff">
		<path fill="#fbcd03" opacity="1.00" d=" M 232.31 80.30 C 234.27 80.42 236.39 79.94 238.24 80.76 C 239.12 83.34 238.61 86.16 238.70 88.85 C 236.79 89.33 234.70 90.19 232.78 89.29 C 231.39 86.46 231.83 83.28 232.31 80.30 Z" />
	</g>
	<g id="#fdce02ff">
		<path fill="#fdce02" opacity="1.00" d=" M 250.36 80.20 C 252.44 79.69 254.59 79.65 256.66 80.30 C 257.09 83.06 256.98 85.86 256.56 88.61 C 254.60 88.86 252.54 89.44 250.73 88.30 C 249.95 85.68 250.42 82.89 250.36 80.20 Z" />
	</g>
	<g id="#ebc40aff">
		<path fill="#ebc40a" opacity="1.00" d=" M 315.02 79.62 C 318.45 79.00 321.85 81.70 321.61 85.27 C 321.79 87.28 321.29 89.61 322.63 91.33 C 325.15 93.00 328.14 93.79 330.73 95.35 C 330.97 96.81 329.62 98.16 328.16 97.61 C 325.68 96.85 323.58 95.26 321.40 93.91 C 320.80 94.90 320.20 95.89 319.60 96.88 C 318.80 96.58 317.99 96.29 317.18 96.00 C 318.12 91.33 318.98 86.65 319.44 81.90 C 318.48 81.75 316.56 81.44 315.60 81.28 C 314.80 84.94 313.85 88.55 313.03 92.20 C 312.38 87.88 312.82 83.46 315.02 79.62 Z" />
	</g>
	<g id="#e3bf0cff">
		<path fill="#e3bf0c" opacity="1.00" d=" M 290.11 81.89 C 291.87 81.56 293.66 81.41 295.45 81.42 C 295.58 82.55 295.71 83.67 295.85 84.80 C 294.32 84.76 292.79 84.72 291.27 84.67 C 290.89 83.74 290.50 82.82 290.11 81.89 Z" />
	</g>
	<g id="#494a4dff">
		<path fill="#494a4d" opacity="1.00" d=" M 174.99 85.95 C 178.20 82.40 183.44 83.27 187.70 83.57 C 187.87 84.00 188.21 84.86 188.38 85.30 C 187.76 86.03 187.15 86.76 186.54 87.50 C 184.09 87.34 181.65 87.21 179.20 87.10 C 179.11 87.89 178.91 89.46 178.81 90.24 C 182.18 90.40 185.55 90.34 188.92 90.35 C 189.58 92.91 190.21 95.49 190.60 98.11 C 186.99 99.85 183.13 101.46 179.05 101.33 C 177.33 100.64 174.55 98.38 176.60 96.59 C 179.08 95.59 181.62 98.50 184.03 97.06 C 185.24 96.60 185.54 95.31 186.04 94.26 C 182.75 94.11 179.40 94.67 176.15 94.03 C 173.70 92.38 172.48 88.10 174.99 85.95 Z" />
	</g>
	<g id="#e3ba0eff">
		<path fill="#e3ba0e" opacity="1.00" d=" M 188.38 85.30 C 189.29 84.79 190.23 84.37 191.22 84.01 C 191.16 87.73 191.64 91.44 192.75 94.98 C 192.54 96.29 191.35 97.10 190.60 98.11 C 190.21 95.49 189.58 92.91 188.92 90.35 C 185.55 90.34 182.18 90.40 178.81 90.24 C 178.91 89.46 179.11 87.89 179.20 87.10 C 181.65 87.21 184.09 87.34 186.54 87.50 C 187.15 86.76 187.76 86.03 188.38 85.30 Z" />
	</g>
	<g id="#a99126ff">
		<path fill="#a99126" opacity="1.00" d=" M 290.10 87.07 C 292.09 87.24 294.06 87.61 295.99 88.15 C 295.79 89.23 295.57 90.30 295.34 91.37 C 293.95 92.00 292.24 91.87 290.92 91.15 C 289.35 90.43 290.28 88.37 290.10 87.07 M 291.57 89.22 C 291.32 90.65 293.77 90.80 294.39 89.81 C 294.62 88.38 292.17 88.23 291.57 89.22 Z" />
	</g>
	<g id="#f4cf05ff">
		<path fill="#f4cf05" opacity="1.00" d=" M 291.57 89.22 C 292.17 88.23 294.62 88.38 294.39 89.81 C 293.77 90.80 291.32 90.65 291.57 89.22 Z" />
	</g>
	<g id="#e35b4fff">
		<path fill="#e35b4f" opacity="1.00" d=" M 159.06 95.34 C 162.19 94.72 166.18 95.01 167.53 98.46 C 169.16 101.20 167.15 103.94 165.41 106.00 C 165.30 103.31 165.14 100.49 163.85 98.07 C 163.00 96.23 160.69 96.10 159.06 95.34 Z" />
	</g>
	<g id="#e45b4eff">
		<path fill="#e45b4e" opacity="1.00" d=" M 343.72 96.73 C 345.47 94.55 348.51 95.35 350.92 95.02 L 350.39 95.35 C 346.88 96.98 345.38 100.60 344.10 103.99 C 346.18 106.46 349.17 106.57 351.92 105.12 C 351.59 105.51 350.93 106.28 350.61 106.67 C 348.87 106.66 347.12 106.78 345.40 106.53 C 342.17 104.55 340.72 99.54 343.72 96.73 Z" />
	</g>
	<g id="#da2126ff">
		<path fill="#da2126" opacity="1.00" d=" M 156.96 104.14 C 155.31 101.14 156.50 97.46 159.06 95.34 C 160.69 96.10 163.00 96.23 163.85 98.07 C 165.14 100.49 165.30 103.31 165.41 106.00 C 162.69 107.36 158.65 107.02 156.96 104.14 Z" />
	</g>
	<g id="#d92026ff">
		<path fill="#d92026" opacity="1.00" d=" M 344.10 103.99 C 345.38 100.60 346.88 96.98 350.39 95.35 C 351.44 96.37 352.55 97.37 353.47 98.53 C 353.73 100.27 353.68 102.03 353.75 103.79 C 353.29 104.12 352.38 104.79 351.92 105.12 C 349.17 106.57 346.18 106.46 344.10 103.99 Z" />
	</g>
	<g id="#f47f22ff">
		<path fill="#f47f22" opacity="1.00" d=" M 146.12 103.08 C 147.85 103.15 149.85 102.42 151.31 103.69 C 153.26 104.94 153.19 108.06 151.34 109.37 C 149.91 110.75 147.84 109.83 146.12 109.91 C 145.22 107.67 145.21 105.32 146.12 103.08 Z" />
	</g>
	<g id="#f48022ff">
		<path fill="#f48022" opacity="1.00" d=" M 357.29 106.86 C 356.84 103.24 361.16 102.36 363.88 103.04 C 364.84 105.30 364.85 107.69 363.89 109.95 C 361.33 110.55 357.54 110.13 357.29 106.86 Z" />
	</g>
	<g id="#6a6751ff">
		<path fill="#6a6751" opacity="1.00" d=" M 207.09 120.87 C 213.98 119.96 221.06 118.56 227.96 120.14 C 237.00 122.65 244.69 130.18 246.44 139.54 C 248.31 150.26 247.24 161.20 248.11 172.01 C 248.19 180.56 248.98 189.18 248.02 197.71 C 247.57 197.88 246.67 198.23 246.22 198.40 C 246.32 190.26 245.43 182.14 245.62 174.00 C 245.79 166.64 244.49 159.35 244.63 152.00 C 244.56 147.01 245.14 141.76 242.96 137.10 C 239.99 129.34 232.59 123.36 224.28 122.52 C 216.45 121.87 208.75 123.63 200.99 124.30 C 196.00 124.70 191.07 125.54 186.09 126.07 C 174.89 127.13 163.85 129.32 152.66 130.43 C 145.79 132.06 138.31 130.62 131.84 133.88 C 126.62 136.69 122.26 141.28 119.95 146.75 C 117.78 154.05 120.09 161.59 121.94 168.68 C 123.99 179.15 126.54 189.52 127.93 200.11 C 130.37 207.53 136.50 213.34 143.85 215.86 C 152.52 217.78 161.48 215.70 170.23 217.09 C 170.08 217.55 169.79 218.47 169.64 218.93 C 163.47 219.85 157.21 219.34 151.01 219.48 C 141.08 219.94 131.30 213.96 127.04 205.01 C 123.88 199.45 124.39 192.87 122.93 186.82 C 121.89 182.37 120.70 177.93 120.56 173.34 C 120.16 173.78 119.77 174.23 119.38 174.67 C 119.42 167.32 116.93 160.30 116.47 153.02 C 116.21 142.21 124.77 133.21 134.45 129.70 C 138.17 128.54 142.12 128.50 145.97 128.09 C 155.38 127.35 164.64 125.43 174.03 124.50 C 178.55 124.17 183.10 124.00 187.57 123.22 C 194.03 122.03 200.62 121.95 207.09 120.87 Z" />
	</g>
	<g id="#656655ff">
		<path fill="#656655" opacity="1.00" d=" M 263.92 137.71 C 266.95 128.96 274.68 121.46 283.94 119.81 C 295.73 118.32 307.27 122.38 319.04 122.46 C 336.36 124.65 353.65 127.23 371.02 129.06 C 382.73 130.17 393.30 140.40 393.68 152.36 C 393.68 157.97 391.79 163.37 390.97 168.89 C 388.62 179.52 387.03 190.30 384.76 200.94 C 381.19 211.95 369.85 220.78 358.01 219.66 C 352.32 219.57 346.62 219.44 340.95 219.91 C 340.71 218.87 340.48 217.83 340.23 216.80 C 347.14 216.46 354.06 216.76 360.98 216.63 C 370.31 216.42 378.66 209.55 381.82 200.97 C 383.52 194.53 383.91 187.82 385.52 181.35 C 387.51 173.40 388.82 165.30 390.61 157.30 C 393.21 148.00 386.97 138.40 378.67 134.46 C 375.98 132.93 373.08 131.53 369.92 131.51 C 363.30 131.43 356.84 129.78 350.24 129.55 C 333.74 126.14 316.76 126.39 300.26 123.00 C 294.67 122.22 288.92 121.90 283.31 122.65 C 273.85 125.27 266.10 133.96 265.71 143.95 C 265.35 153.28 266.00 162.67 264.80 171.96 C 264.43 180.59 264.18 189.26 264.78 197.88 C 264.61 198.12 264.26 198.59 264.09 198.83 C 263.48 198.71 262.28 198.47 261.68 198.35 C 261.54 191.23 261.52 184.11 261.98 177.01 C 262.87 163.92 261.55 150.68 263.92 137.71 Z" />
	</g>
	<g id="#b7d5dfff">
		<path fill="#b7d5df" opacity="1.00" d=" M 265.71 143.95 C 266.10 133.96 273.85 125.27 283.31 122.65 C 288.92 121.90 294.67 122.22 300.26 123.00 C 316.76 126.39 333.74 126.14 350.24 129.55 C 344.84 130.09 338.38 127.62 334.04 131.99 C 323.25 141.21 312.02 149.96 302.04 160.08 C 292.07 168.74 282.93 178.31 274.33 188.32 C 271.91 191.37 270.03 194.79 267.92 198.05 C 267.13 198.01 265.57 197.92 264.78 197.88 C 264.18 189.26 264.43 180.59 264.80 171.96 C 266.00 162.67 265.35 153.28 265.71 143.95 Z" />
		<path fill="#b7d5df" opacity="1.00" d=" M 224.28 122.52 C 232.59 123.36 239.99 129.34 242.96 137.10 C 245.14 141.76 244.56 147.01 244.63 152.00 C 244.49 159.35 245.79 166.64 245.62 174.00 C 245.43 182.14 246.32 190.26 246.22 198.40 C 237.70 197.80 229.33 199.93 220.84 200.22 C 226.91 193.19 233.44 186.47 240.90 180.91 C 242.12 179.83 243.84 178.82 243.75 176.95 C 244.28 166.64 244.33 156.28 243.76 145.97 C 243.71 144.09 242.92 142.37 242.30 140.64 C 238.91 143.45 235.74 146.52 232.86 149.85 C 220.51 163.92 208.17 178.06 197.37 193.38 C 194.62 197.07 191.79 200.72 189.66 204.83 C 184.75 206.02 179.57 206.63 175.08 209.10 C 172.36 210.88 171.29 214.19 170.23 217.09 C 161.48 215.70 152.52 217.78 143.85 215.86 C 147.57 213.14 149.69 209.00 152.44 205.42 C 160.28 195.94 168.09 186.45 176.21 177.21 C 182.57 170.18 187.91 162.32 194.33 155.34 C 199.06 149.74 204.18 144.48 208.94 138.91 C 213.82 133.22 219.86 128.61 224.28 122.52 Z" />
		<path fill="#b7d5df" opacity="1.00" d=" M 152.66 130.43 C 163.85 129.32 174.89 127.13 186.09 126.07 C 179.12 132.48 173.20 139.90 166.91 146.96 C 154.76 160.33 144.35 175.13 133.42 189.47 C 130.76 192.52 127.45 195.65 127.93 200.11 C 126.54 189.52 123.99 179.15 121.94 168.68 C 120.09 161.59 117.78 154.05 119.95 146.75 C 122.26 141.28 126.62 136.69 131.84 133.88 C 138.31 130.62 145.79 132.06 152.66 130.43 Z" />
		<path fill="#b7d5df" opacity="1.00" d=" M 378.67 134.46 C 386.97 138.40 393.21 148.00 390.61 157.30 C 390.39 156.44 389.95 154.70 389.72 153.83 C 384.40 155.62 380.55 159.88 376.13 163.12 C 364.89 171.79 354.00 180.93 343.74 190.74 C 339.01 196.09 332.66 200.20 329.66 206.90 C 319.46 204.78 309.22 202.71 298.86 201.53 C 302.93 201.15 305.17 197.43 307.82 194.82 C 313.60 188.93 319.43 183.10 325.35 177.36 C 341.81 161.49 360.45 148.17 378.67 134.46 Z" />
		<path fill="#b7d5df" opacity="1.00" d=" M 371.88 191.87 C 376.28 188.19 380.73 184.54 385.52 181.35 C 383.91 187.82 383.52 194.53 381.82 200.97 C 378.66 209.55 370.31 216.42 360.98 216.63 C 354.06 216.76 347.14 216.46 340.23 216.80 C 340.10 216.46 339.85 215.79 339.72 215.45 C 341.75 215.01 344.18 215.26 345.79 213.71 C 353.95 205.82 362.97 198.89 371.88 191.87 Z" />
	</g>
	<g id="#c8eaf6ff">
		<path fill="#c8eaf6" opacity="1.00" d=" M 200.99 124.30 C 208.75 123.63 216.45 121.87 224.28 122.52 C 219.86 128.61 213.82 133.22 208.94 138.91 C 204.18 144.48 199.06 149.74 194.33 155.34 C 187.91 162.32 182.57 170.18 176.21 177.21 C 168.09 186.45 160.28 195.94 152.44 205.42 C 149.69 209.00 147.57 213.14 143.85 215.86 C 136.50 213.34 130.37 207.53 127.93 200.11 C 127.45 195.65 130.76 192.52 133.42 189.47 C 144.35 175.13 154.76 160.33 166.91 146.96 C 173.20 139.90 179.12 132.48 186.09 126.07 C 191.07 125.54 196.00 124.70 200.99 124.30 Z" />
		<path fill="#c8eaf6" opacity="1.00" d=" M 334.04 131.99 C 338.38 127.62 344.84 130.09 350.24 129.55 C 356.84 129.78 363.30 131.43 369.92 131.51 C 373.08 131.53 375.98 132.93 378.67 134.46 C 360.45 148.17 341.81 161.49 325.35 177.36 C 319.43 183.10 313.60 188.93 307.82 194.82 C 305.17 197.43 302.93 201.15 298.86 201.53 C 288.56 200.29 278.24 199.16 267.92 198.05 C 270.03 194.79 271.91 191.37 274.33 188.32 C 282.93 178.31 292.07 168.74 302.04 160.08 C 312.02 149.96 323.25 141.21 334.04 131.99 Z" />
		<path fill="#c8eaf6" opacity="1.00" d=" M 232.86 149.85 C 235.74 146.52 238.91 143.45 242.30 140.64 C 242.92 142.37 243.71 144.09 243.76 145.97 C 244.33 156.28 244.28 166.64 243.75 176.95 C 243.84 178.82 242.12 179.83 240.90 180.91 C 233.44 186.47 226.91 193.19 220.84 200.22 C 210.42 201.51 199.96 202.70 189.66 204.83 C 191.79 200.72 194.62 197.07 197.37 193.38 C 208.17 178.06 220.51 163.92 232.86 149.85 Z" />
		<path fill="#c8eaf6" opacity="1.00" d=" M 376.13 163.12 C 380.55 159.88 384.40 155.62 389.72 153.83 C 389.95 154.70 390.39 156.44 390.61 157.30 C 388.82 165.30 387.51 173.40 385.52 181.35 C 380.73 184.54 376.28 188.19 371.88 191.87 C 362.97 198.89 353.95 205.82 345.79 213.71 C 344.18 215.26 341.75 215.01 339.72 215.45 C 338.67 213.05 337.93 209.92 335.15 208.96 C 333.37 208.13 331.54 207.44 329.66 206.90 C 332.66 200.20 339.01 196.09 343.74 190.74 C 354.00 180.93 364.89 171.79 376.13 163.12 Z" />
	</g>
	<g id="#595a59ff">
		<path fill="#595a59" opacity="1.00" d=" M 91.76 158.94 C 92.13 160.60 92.39 162.28 92.58 163.97 C 86.80 165.63 81.01 167.34 75.41 169.53 C 72.81 170.18 73.40 173.29 72.66 175.28 C 72.31 175.36 71.60 175.52 71.24 175.60 C 71.71 176.83 72.17 178.05 72.58 179.29 C 70.78 179.02 68.98 178.74 67.18 178.51 C 62.58 177.89 57.94 178.22 53.32 178.28 C 52.95 178.12 52.19 177.82 51.82 177.66 C 57.41 177.36 62.98 176.85 68.56 176.36 C 71.07 174.25 68.19 169.90 70.63 167.60 C 77.52 164.35 85.58 163.58 91.76 158.94 Z" />
	</g>
	<g id="#5a5a5bff">
		<path fill="#5a5a5b" opacity="1.00" d=" M 417.77 164.27 C 418.02 162.76 418.27 161.26 418.52 159.75 C 422.16 161.60 426.10 162.72 429.93 164.12 C 433.19 165.55 436.71 166.47 439.76 168.35 C 440.33 170.85 440.18 173.44 440.22 175.98 C 443.17 176.78 446.17 177.51 449.25 177.60 C 447.21 177.73 445.18 177.96 443.15 178.18 C 443.37 178.63 443.81 179.53 444.03 179.98 C 441.99 179.52 439.94 179.09 437.90 178.67 C 438.16 177.67 438.45 176.68 438.75 175.69 C 438.39 175.59 437.66 175.39 437.30 175.29 C 436.95 173.63 436.65 171.95 436.35 170.28 C 430.29 167.91 424.17 165.58 417.77 164.27 Z" />
	</g>
	<g id="#eeedecff">
		<path fill="#eeedec" opacity="1.00" d=" M 75.41 169.53 C 81.01 167.34 86.80 165.63 92.58 163.97 C 93.14 172.06 94.85 179.98 96.12 187.96 C 96.12 195.07 98.87 201.88 98.40 209.02 C 98.80 208.00 99.21 206.99 99.61 205.97 C 98.92 212.10 101.39 217.91 101.63 223.97 C 101.92 228.73 102.70 233.45 103.71 238.11 C 95.43 239.06 87.12 239.84 78.81 240.36 C 78.65 237.55 78.57 234.75 78.52 231.94 C 83.58 231.67 88.61 230.98 93.65 230.48 C 93.15 215.23 89.96 200.21 89.08 185.00 C 88.69 181.46 88.40 177.91 88.06 174.36 C 82.91 174.49 77.83 175.77 72.66 175.28 C 73.40 173.29 72.81 170.18 75.41 169.53 Z" />
		<path fill="#eeedec" opacity="1.00" d=" M 410.32 213.27 C 412.63 196.90 415.15 180.58 417.77 164.27 C 424.17 165.58 430.29 167.91 436.35 170.28 C 436.65 171.95 436.95 173.63 437.30 175.29 C 432.03 175.76 426.85 174.40 421.59 174.41 C 422.16 183.39 419.42 192.09 419.32 201.03 C 418.34 210.84 416.78 220.61 416.35 230.47 C 421.38 231.06 426.43 231.49 431.47 231.95 C 431.45 234.72 431.32 237.48 431.13 240.24 C 423.00 239.48 414.85 238.68 406.69 238.52 C 408.44 230.18 408.77 221.64 410.32 213.27 Z" />
	</g>
	<g id="#a6a6a7ff">
		<path fill="#a6a6a7" opacity="1.00" d=" M 429.93 164.12 C 433.43 164.51 436.90 165.40 440.06 166.98 C 441.32 169.31 440.56 172.37 440.92 174.98 C 446.79 176.13 452.70 177.07 458.68 177.36 C 458.85 183.06 458.63 188.78 457.22 194.33 C 456.66 200.23 455.98 206.10 455.02 211.95 C 454.89 219.40 453.17 226.68 452.70 234.11 C 447.06 234.79 441.45 233.23 435.81 233.82 C 435.72 237.36 435.53 240.89 435.44 244.43 C 425.62 245.91 416.16 241.95 406.35 242.57 L 406.73 241.91 C 415.46 242.19 424.29 242.06 432.89 243.84 C 434.09 240.27 434.55 236.53 434.88 232.80 L 435.30 232.15 C 440.80 232.65 446.29 233.85 451.83 233.11 C 452.88 221.04 454.31 209.00 455.94 197.00 C 456.39 190.94 456.83 184.88 457.48 178.83 C 454.76 178.23 452.04 177.60 449.25 177.60 C 446.17 177.51 443.17 176.78 440.22 175.98 C 440.18 173.44 440.33 170.85 439.76 168.35 C 436.71 166.47 433.19 165.55 429.93 164.12 Z" />
	</g>
	<g id="#404040ff">
		<path fill="#404040" opacity="1.00" d=" M 72.66 175.28 C 77.83 175.77 82.91 174.49 88.06 174.36 C 88.40 177.91 88.69 181.46 89.08 185.00 C 89.96 200.21 93.15 215.23 93.65 230.48 C 88.61 230.98 83.58 231.67 78.52 231.94 C 76.27 232.09 74.15 231.25 72.07 230.54 C 76.01 225.96 82.34 223.34 84.58 217.44 C 85.32 213.26 83.45 209.15 83.17 204.99 C 82.37 195.42 80.21 186.00 79.83 176.39 C 77.45 175.97 75.07 175.52 72.66 175.28 Z" />
		<path fill="#404040" opacity="1.00" d=" M 421.59 174.41 C 426.85 174.40 432.03 175.76 437.30 175.29 C 434.88 175.52 432.50 175.97 430.12 176.39 C 429.95 186.61 427.65 196.60 426.49 206.72 C 426.00 211.13 423.73 216.21 426.82 220.17 C 429.98 224.37 434.66 227.04 438.64 230.37 C 437.52 230.95 436.39 231.52 435.30 232.15 L 434.88 232.80 C 433.74 232.50 432.61 232.20 431.47 231.95 C 426.43 231.49 421.38 231.06 416.35 230.47 C 416.78 220.61 418.34 210.84 419.32 201.03 C 419.42 192.09 422.16 183.39 421.59 174.41 Z" />
	</g>
	<g id="#4b4c4dff">
		<path fill="#4b4c4d" opacity="1.00" d=" M 71.24 175.60 C 71.60 175.52 72.31 175.36 72.66 175.28 C 75.07 175.52 77.45 175.97 79.83 176.39 C 80.21 186.00 82.37 195.42 83.17 204.99 C 83.45 209.15 85.32 213.26 84.58 217.44 C 82.34 223.34 76.01 225.96 72.07 230.54 C 74.15 231.25 76.27 232.09 78.52 231.94 C 78.57 234.75 78.65 237.55 78.81 240.36 C 87.12 239.84 95.43 239.06 103.71 238.11 C 104.02 239.61 104.31 241.11 104.49 242.63 C 94.81 241.63 85.22 243.80 75.55 243.53 C 75.46 240.24 75.28 236.95 75.06 233.67 C 69.21 233.04 63.34 233.91 57.47 233.67 C 57.57 219.64 53.68 205.95 53.51 191.94 C 53.57 187.56 51.77 183.30 52.51 178.92 L 53.32 178.28 C 57.94 178.22 62.58 177.89 67.18 178.51 C 63.98 183.68 61.40 189.21 58.66 194.63 C 56.48 198.90 57.41 203.81 57.60 208.38 C 58.13 208.47 59.19 208.65 59.73 208.74 C 62.65 198.34 69.17 189.47 72.58 179.29 C 72.17 178.05 71.71 176.83 71.24 175.60 M 65.50 206.42 C 65.23 208.00 64.98 212.50 67.45 211.48 C 69.09 208.05 70.12 204.33 72.03 201.02 C 73.26 198.50 75.52 195.86 74.09 192.93 C 68.71 195.14 67.23 201.44 65.50 206.42 Z" />
		<path fill="#4b4c4d" opacity="1.00" d=" M 437.30 175.29 C 437.66 175.39 438.39 175.59 438.75 175.69 C 438.45 176.68 438.16 177.67 437.90 178.67 C 437.81 180.19 438.13 181.70 438.84 183.05 C 442.93 191.48 447.59 199.70 450.28 208.73 C 450.81 208.65 451.87 208.48 452.40 208.40 C 452.57 203.78 453.55 198.83 451.42 194.50 C 449.04 189.62 446.25 184.94 444.03 179.98 C 443.81 179.53 443.37 178.63 443.15 178.18 C 445.18 177.96 447.21 177.73 449.25 177.60 C 452.04 177.60 454.76 178.23 457.48 178.83 C 456.83 184.88 456.39 190.94 455.94 197.00 C 454.31 209.00 452.88 221.04 451.83 233.11 C 446.29 233.85 440.80 232.65 435.30 232.15 C 436.39 231.52 437.52 230.95 438.64 230.37 C 434.66 227.04 429.98 224.37 426.82 220.17 C 423.73 216.21 426.00 211.13 426.49 206.72 C 427.65 196.60 429.95 186.61 430.12 176.39 C 432.50 175.97 434.88 175.52 437.30 175.29 M 435.89 192.96 C 435.50 194.28 435.25 195.70 436.04 196.95 C 438.40 201.77 441.01 206.50 442.57 211.67 C 443.05 211.63 444.03 211.53 444.52 211.48 C 444.70 208.95 445.05 206.29 443.95 203.90 C 442.12 199.74 440.72 194.51 435.89 192.96 Z" />
		<path fill="#4b4c4d" opacity="1.00" d=" M 204.44 281.43 C 207.61 281.10 210.81 280.95 214.00 281.08 C 243.37 281.28 272.74 280.90 302.10 281.25 C 301.89 282.70 301.55 284.41 299.87 284.80 C 293.60 285.34 287.29 284.98 281.00 285.05 C 255.67 285.01 230.34 285.16 205.01 284.98 L 204.01 284.97 C 204.15 283.79 204.30 282.61 204.44 281.43 Z" />
	</g>
	<g id="#919292ff">
		<path fill="#919292" opacity="1.00" d=" M 58.66 194.63 C 61.40 189.21 63.98 183.68 67.18 178.51 C 68.98 178.74 70.78 179.02 72.58 179.29 C 69.17 189.47 62.65 198.34 59.73 208.74 C 59.19 208.65 58.13 208.47 57.60 208.38 C 57.41 203.81 56.48 198.90 58.66 194.63 Z" />
	</g>
	<g id="#919293ff">
		<path fill="#919293" opacity="1.00" d=" M 438.84 183.05 C 438.13 181.70 437.81 180.19 437.90 178.67 C 439.94 179.09 441.99 179.52 444.03 179.98 C 446.25 184.94 449.04 189.62 451.42 194.50 C 453.55 198.83 452.57 203.78 452.40 208.40 C 451.87 208.48 450.81 208.65 450.28 208.73 C 447.59 199.70 442.93 191.48 438.84 183.05 Z" />
	</g>
	<g id="#8f9090ff">
		<path fill="#8f9090" opacity="1.00" d=" M 65.50 206.42 C 67.23 201.44 68.71 195.14 74.09 192.93 C 75.52 195.86 73.26 198.50 72.03 201.02 C 70.12 204.33 69.09 208.05 67.45 211.48 C 64.98 212.50 65.23 208.00 65.50 206.42 Z" />
	</g>
	<g id="#8f9091ff">
		<path fill="#8f9091" opacity="1.00" d=" M 435.89 192.96 C 440.72 194.51 442.12 199.74 443.95 203.90 C 445.05 206.29 444.70 208.95 444.52 211.48 C 444.03 211.53 443.05 211.63 442.57 211.67 C 441.01 206.50 438.40 201.77 436.04 196.95 C 435.25 195.70 435.50 194.28 435.89 192.96 Z" />
	</g>
	<g id="#ddd67eff">
		<path fill="#ddd67e" opacity="1.00" d=" M 220.84 200.22 C 229.33 199.93 237.70 197.80 246.22 198.40 C 244.79 198.93 243.35 199.43 241.89 199.85 C 225.68 200.51 209.55 202.45 193.59 205.30 C 187.37 206.34 181.33 208.25 175.08 209.10 C 179.57 206.63 184.75 206.02 189.66 204.83 C 199.96 202.70 210.42 201.51 220.84 200.22 Z" />
	</g>
	<g id="#e0d678ff">
		<path fill="#e0d678" opacity="1.00" d=" M 264.09 198.83 C 264.26 198.59 264.61 198.12 264.78 197.88 C 265.57 197.92 267.13 198.01 267.92 198.05 C 278.24 199.16 288.56 200.29 298.86 201.53 C 309.22 202.71 319.46 204.78 329.66 206.90 C 331.54 207.44 333.37 208.13 335.15 208.96 C 328.50 208.39 322.17 206.12 315.59 205.13 C 305.72 203.50 295.82 202.04 285.87 201.12 C 278.63 200.12 271.22 200.62 264.09 198.83 Z" />
	</g>
	<g id="#5a5b5cff">
		<path fill="#5a5b5c" opacity="1.00" d=" M 210.30 225.21 C 213.79 224.27 217.44 224.66 221.00 224.61 C 245.34 224.62 269.69 224.64 294.03 224.59 C 302.67 224.49 310.28 231.10 313.26 238.91 C 315.42 243.98 315.38 249.59 315.33 255.00 C 315.27 266.33 315.40 277.67 315.27 289.00 C 314.94 296.20 312.42 304.00 306.43 308.47 C 302.62 311.43 297.89 313.30 293.02 313.23 C 267.68 313.22 242.34 313.19 217.00 313.24 C 212.81 313.19 208.32 312.85 204.87 310.20 C 198.46 306.52 195.11 299.12 194.46 292.01 C 194.32 277.34 194.46 262.68 194.39 248.02 C 194.14 238.14 200.49 227.86 210.30 225.21 M 202.65 239.83 C 203.54 240.67 204.43 241.51 205.33 242.35 C 204.17 242.74 203.97 243.40 204.74 244.34 C 210.12 245.06 215.58 244.47 221.00 244.63 C 248.46 244.51 275.94 244.91 303.39 244.44 C 303.54 243.35 303.68 242.27 303.83 241.19 C 303.49 241.26 302.82 241.39 302.49 241.46 C 301.94 238.32 298.66 237.85 296.05 237.95 C 268.70 238.01 241.35 237.96 214.00 237.98 C 210.18 238.23 205.39 236.12 202.65 239.83 M 203.85 250.04 C 205.33 251.87 207.80 251.92 209.96 251.97 C 235.30 251.90 260.65 251.97 286.00 251.93 C 291.66 251.85 297.49 252.57 302.97 250.75 C 301.92 248.95 300.18 247.81 298.03 248.09 C 268.34 248.03 238.65 248.16 208.96 248.02 C 207.14 248.17 204.48 247.79 203.85 250.04 M 295.02 252.71 C 267.35 252.62 239.68 252.74 212.01 252.65 C 209.68 252.67 207.35 252.81 205.03 252.97 C 205.31 253.49 205.87 254.54 206.16 255.06 C 231.10 255.49 256.05 255.12 281.00 255.24 C 288.28 255.09 295.59 255.63 302.86 254.89 C 303.17 253.93 303.49 252.98 303.82 252.04 C 300.90 252.40 297.96 252.70 295.02 252.71 M 205.61 258.66 C 204.13 258.92 204.18 260.48 203.87 261.62 C 211.90 262.20 219.96 261.88 228.00 261.96 C 250.67 261.98 273.35 261.91 296.03 262.00 C 298.42 262.04 300.76 261.50 303.04 260.83 C 302.01 259.51 300.89 257.95 298.97 258.22 C 270.99 258.10 242.99 258.25 215.00 258.16 C 211.88 258.22 208.66 257.80 205.61 258.66 M 205.58 263.97 C 206.44 265.58 208.49 265.22 209.99 265.38 C 239.33 265.34 268.68 265.34 298.02 265.39 C 299.64 265.38 301.40 265.32 302.55 263.96 C 298.05 263.40 293.51 263.65 289.00 263.63 C 266.00 263.63 243.00 263.62 220.00 263.64 C 215.19 263.65 210.37 263.39 205.58 263.97 M 204.50 271.41 C 204.40 272.03 204.20 273.25 204.10 273.86 C 211.38 274.52 218.70 274.05 226.00 274.18 C 251.09 274.29 276.18 273.96 301.27 274.36 C 295.95 275.78 290.43 275.15 285.00 275.23 C 258.40 275.29 231.81 275.14 205.21 275.30 C 205.21 275.89 205.20 277.08 205.19 277.68 C 237.76 278.01 270.33 277.86 302.90 277.76 C 303.29 276.54 303.69 275.34 304.17 274.17 C 303.67 274.20 302.67 274.27 302.17 274.30 C 301.99 273.57 301.63 272.11 301.45 271.38 C 296.00 270.59 290.48 271.05 285.00 270.97 C 259.99 270.94 234.98 271.01 209.97 270.93 C 208.13 270.99 206.31 271.22 204.50 271.41 M 204.44 281.43 C 204.30 282.61 204.15 283.79 204.01 284.97 L 205.01 284.98 C 205.07 285.74 205.17 287.24 205.23 287.99 C 208.81 288.40 212.41 288.47 216.01 288.35 C 241.00 288.33 266.00 288.34 291.00 288.35 C 294.62 288.30 298.29 288.65 301.88 288.02 C 303.69 287.77 304.01 285.88 304.38 284.44 C 302.88 284.55 301.37 284.67 299.87 284.80 C 301.55 284.41 301.89 282.70 302.10 281.25 C 272.74 280.90 243.37 281.28 214.00 281.08 C 210.81 280.95 207.61 281.10 204.44 281.43 M 204.67 292.65 C 203.75 293.61 203.83 294.50 204.92 295.31 C 205.37 296.56 205.18 298.86 207.14 298.63 C 237.10 298.80 267.08 298.59 297.05 298.73 C 299.19 298.68 301.53 298.67 303.31 297.30 C 305.14 296.33 303.73 294.34 302.01 295.13 C 301.96 294.37 301.86 292.86 301.81 292.10 C 271.55 291.65 241.26 292.12 210.99 291.87 C 208.88 291.95 206.63 291.74 204.67 292.65 Z" />
	</g>
	<g id="#565758ff">
		<path fill="#565758" opacity="1.00" d=" M 431.47 231.95 C 432.61 232.20 433.74 232.50 434.88 232.80 C 434.55 236.53 434.09 240.27 432.89 243.84 C 424.29 242.06 415.46 242.19 406.73 241.91 C 406.69 240.78 406.66 239.65 406.69 238.52 C 414.85 238.68 423.00 239.48 431.13 240.24 C 431.32 237.48 431.45 234.72 431.47 231.95 Z" />
	</g>
	<g id="#4c4d4fff">
		<path fill="#4c4d4f" opacity="1.00" d=" M 202.65 239.83 C 205.39 236.12 210.18 238.23 214.00 237.98 C 241.35 237.96 268.70 238.01 296.05 237.95 C 298.66 237.85 301.94 238.32 302.49 241.46 C 299.70 242.04 296.86 242.39 294.01 242.43 C 264.45 242.28 234.89 242.43 205.33 242.35 C 204.43 241.51 203.54 240.67 202.65 239.83 Z" />
	</g>
	<g id="#969797ff">
		<path fill="#969797" opacity="1.00" d=" M 294.01 242.43 C 296.86 242.39 299.70 242.04 302.49 241.46 C 302.82 241.39 303.49 241.26 303.83 241.19 C 303.68 242.27 303.54 243.35 303.39 244.44 C 275.94 244.91 248.46 244.51 221.00 244.63 C 215.58 244.47 210.12 245.06 204.74 244.34 C 203.97 243.40 204.17 242.74 205.33 242.35 C 234.89 242.43 264.45 242.28 294.01 242.43 Z" />
	</g>
	<g id="#4d4e4fff">
		<path fill="#4d4e4f" opacity="1.00" d=" M 203.85 250.04 C 204.48 247.79 207.14 248.17 208.96 248.02 C 238.65 248.16 268.34 248.03 298.03 248.09 C 300.18 247.81 301.92 248.95 302.97 250.75 C 297.49 252.57 291.66 251.85 286.00 251.93 C 260.65 251.97 235.30 251.90 209.96 251.97 C 207.80 251.92 205.33 251.87 203.85 250.04 Z" />
	</g>
	<g id="#888989ff">
		<path fill="#888989" opacity="1.00" d=" M 295.02 252.71 C 297.96 252.70 300.90 252.40 303.82 252.04 C 303.49 252.98 303.17 253.93 302.86 254.89 C 295.59 255.63 288.28 255.09 281.00 255.24 C 256.05 255.12 231.10 255.49 206.16 255.06 C 205.87 254.54 205.31 253.49 205.03 252.97 C 207.35 252.81 209.68 252.67 212.01 252.65 C 239.68 252.74 267.35 252.62 295.02 252.71 Z" />
	</g>
	<g id="#4e4f4fff">
		<path fill="#4e4f4f" opacity="1.00" d=" M 205.61 258.66 C 208.66 257.80 211.88 258.22 215.00 258.16 C 242.99 258.25 270.99 258.10 298.97 258.22 C 300.89 257.95 302.01 259.51 303.04 260.83 C 300.76 261.50 298.42 262.04 296.03 262.00 C 273.35 261.91 250.67 261.98 228.00 261.96 C 219.96 261.88 211.90 262.20 203.87 261.62 C 204.18 260.48 204.13 258.92 205.61 258.66 Z" />
	</g>
	<g id="#b1b1a5ff">
		<path fill="#b1b1a5" opacity="1.00" d=" M 136.84 260.97 C 146.71 257.23 159.03 258.63 166.69 266.31 C 171.49 270.61 173.93 276.83 175.15 283.02 C 177.06 296.11 168.12 309.87 155.21 313.08 C 150.13 313.42 145.01 313.46 139.95 312.90 C 136.02 311.51 132.04 309.86 128.96 306.97 C 125.36 303.77 123.08 299.39 121.26 295.01 C 120.51 289.41 120.41 283.70 121.42 278.13 C 123.93 270.59 129.59 264.24 136.84 260.97 M 123.22 281.17 C 121.63 287.60 123.12 294.60 126.92 300.00 C 129.32 304.70 133.92 307.69 138.73 309.51 C 143.71 311.91 149.51 311.88 154.80 310.62 C 163.22 308.12 169.69 300.92 172.38 292.71 C 172.77 288.36 172.95 283.89 172.22 279.58 C 170.49 275.74 168.53 271.50 165.01 269.05 C 161.11 263.34 153.62 261.21 147.00 261.56 C 135.76 261.42 125.55 270.32 123.22 281.17 Z" />
	</g>
	<g id="#b0ad9fff">
		<path fill="#b0ad9f" opacity="1.00" d=" M 356.35 259.17 C 361.13 258.32 365.95 259.67 370.58 260.72 C 383.63 266.29 391.49 282.94 385.48 296.24 C 382.70 304.50 375.52 311.13 367.03 313.11 C 362.71 313.79 358.30 313.62 353.97 313.30 C 348.50 312.96 344.01 309.38 340.00 306.00 C 337.02 302.52 334.76 298.43 332.93 294.25 C 331.93 289.67 332.28 284.86 332.57 280.21 C 335.60 269.45 344.74 259.91 356.35 259.17 M 348.28 264.23 C 339.64 268.55 334.15 278.35 334.92 287.95 C 335.96 293.66 337.35 299.95 341.98 303.89 C 350.32 312.92 365.76 314.16 375.26 306.27 C 379.51 302.94 382.17 298.07 384.05 293.10 C 384.67 286.70 385.45 279.23 381.16 273.86 C 375.40 262.18 359.45 257.95 348.28 264.23 Z" />
	</g>
	<g id="#e9e8e7ff">
		<path fill="#e9e8e7" opacity="1.00" d=" M 348.28 264.23 C 359.45 257.95 375.40 262.18 381.16 273.86 C 376.26 269.41 369.62 267.16 363.05 267.21 C 355.91 267.40 349.88 272.35 346.08 278.06 C 341.42 285.69 339.97 295.19 341.98 303.89 C 337.35 299.95 335.96 293.66 334.92 287.95 C 334.15 278.35 339.64 268.55 348.28 264.23 Z" />
		<path fill="#e9e8e7" opacity="1.00" d=" M 123.22 281.17 C 125.55 270.32 135.76 261.42 147.00 261.56 C 153.62 261.21 161.11 263.34 165.01 269.05 C 159.93 268.26 154.77 266.93 149.60 267.66 C 143.48 268.81 137.38 271.45 133.23 276.24 C 127.40 282.48 124.82 291.66 126.92 300.00 C 123.12 294.60 121.63 287.60 123.22 281.17 Z" />
	</g>
	<g id="#999a9aff">
		<path fill="#999a9a" opacity="1.00" d=" M 205.58 263.97 C 210.37 263.39 215.19 263.65 220.00 263.64 C 243.00 263.62 266.00 263.63 289.00 263.63 C 293.51 263.65 298.05 263.40 302.55 263.96 C 301.40 265.32 299.64 265.38 298.02 265.39 C 268.68 265.34 239.33 265.34 209.99 265.38 C 208.49 265.22 206.44 265.58 205.58 263.97 Z" />
	</g>
	<g id="#ffffffff">
		<path fill="#ffffff" opacity="1.00" d=" M 149.60 267.66 C 154.77 266.93 159.93 268.26 165.01 269.05 C 168.53 271.50 170.49 275.74 172.22 279.58 C 172.95 283.89 172.77 288.36 172.38 292.71 C 169.69 300.92 163.22 308.12 154.80 310.62 C 149.51 311.88 143.71 311.91 138.73 309.51 C 133.92 307.69 129.32 304.70 126.92 300.00 C 124.82 291.66 127.40 282.48 133.23 276.24 C 137.38 271.45 143.48 268.81 149.60 267.66 M 157.37 281.31 C 153.66 282.38 150.41 287.22 153.32 290.67 C 155.95 295.24 164.54 295.27 165.48 289.41 C 167.20 284.57 162.33 279.25 157.37 281.31 Z" />
		<path fill="#ffffff" opacity="1.00" d=" M 346.08 278.06 C 349.88 272.35 355.91 267.40 363.05 267.21 C 369.62 267.16 376.26 269.41 381.16 273.86 C 385.45 279.23 384.67 286.70 384.05 293.10 C 382.17 298.07 379.51 302.94 375.26 306.27 C 365.76 314.16 350.32 312.92 341.98 303.89 C 339.97 295.19 341.42 285.69 346.08 278.06 M 356.44 281.43 C 354.55 282.40 351.93 283.57 351.93 286.06 C 351.66 288.88 352.73 292.32 355.62 293.40 C 359.42 295.25 365.50 292.72 365.12 287.99 C 365.97 283.33 360.72 279.20 356.44 281.43 Z" />
	</g>
	<g id="#4c4d4dff">
		<path fill="#4c4d4d" opacity="1.00" d=" M 204.50 271.41 C 206.31 271.22 208.13 270.99 209.97 270.93 C 234.98 271.01 259.99 270.94 285.00 270.97 C 290.48 271.05 296.00 270.59 301.45 271.38 C 301.63 272.11 301.99 273.57 302.17 274.30 L 301.27 274.36 C 276.18 273.96 251.09 274.29 226.00 274.18 C 218.70 274.05 211.38 274.52 204.10 273.86 C 204.20 273.25 204.40 272.03 204.50 271.41 Z" />
	</g>
	<g id="#828383ff">
		<path fill="#828383" opacity="1.00" d=" M 301.27 274.36 L 302.17 274.30 C 302.67 274.27 303.67 274.20 304.17 274.17 C 303.69 275.34 303.29 276.54 302.90 277.76 C 270.33 277.86 237.76 278.01 205.19 277.68 C 205.20 277.08 205.21 275.89 205.21 275.30 C 231.81 275.14 258.40 275.29 285.00 275.23 C 290.43 275.15 295.95 275.78 301.27 274.36 Z" />
	</g>
	<g id="#d9bd40ff">
		<path fill="#d9bd40" opacity="1.00" d=" M 120.38 279.33 C 120.64 279.03 121.16 278.43 121.42 278.13 C 120.41 283.70 120.51 289.41 121.26 295.01 C 118.81 290.25 118.83 284.37 120.38 279.33 Z" />
	</g>
	<g id="#fffbe6ff">
		<path fill="#fffbe6" opacity="1.00" d=" M 157.37 281.31 C 162.33 279.25 167.20 284.57 165.48 289.41 C 164.54 295.27 155.95 295.24 153.32 290.67 C 150.41 287.22 153.66 282.38 157.37 281.31 Z" />
	</g>
	<g id="#fffbe7ff">
		<path fill="#fffbe7" opacity="1.00" d=" M 356.44 281.43 C 360.72 279.20 365.97 283.33 365.12 287.99 C 365.50 292.72 359.42 295.25 355.62 293.40 C 352.73 292.32 351.66 288.88 351.93 286.06 C 351.93 283.57 354.55 282.40 356.44 281.43 Z" />
	</g>
	<g id="#7e7f80ff">
		<path fill="#7e7f80" opacity="1.00" d=" M 299.87 284.80 C 301.37 284.67 302.88 284.55 304.38 284.44 C 304.01 285.88 303.69 287.77 301.88 288.02 C 298.29 288.65 294.62 288.30 291.00 288.35 C 266.00 288.34 241.00 288.33 216.01 288.35 C 212.41 288.47 208.81 288.40 205.23 287.99 C 205.17 287.24 205.07 285.74 205.01 284.98 C 230.34 285.16 255.67 285.01 281.00 285.05 C 287.29 284.98 293.60 285.34 299.87 284.80 Z" />
	</g>
	<g id="#4a4b4bff">
		<path fill="#4a4b4b" opacity="1.00" d=" M 204.67 292.65 C 206.63 291.74 208.88 291.95 210.99 291.87 C 241.26 292.12 271.55 291.65 301.81 292.10 C 301.86 292.86 301.96 294.37 302.01 295.13 C 269.65 295.61 237.28 295.27 204.92 295.31 C 203.83 294.50 203.75 293.61 204.67 292.65 Z" />
	</g>
	<g id="#828384ff">
		<path fill="#828384" opacity="1.00" d=" M 204.92 295.31 C 237.28 295.27 269.65 295.61 302.01 295.13 C 303.73 294.34 305.14 296.33 303.31 297.30 C 301.53 298.67 299.19 298.68 297.05 298.73 C 267.08 298.59 237.10 298.80 207.14 298.63 C 205.18 298.86 205.37 296.56 204.92 295.31 Z" />
	</g>
	<g id="#d4bb49ff">
		<path fill="#d4bb49" opacity="1.00" d=" M 139.95 312.90 C 145.01 313.46 150.13 313.42 155.21 313.08 C 150.56 315.57 144.54 315.49 139.95 312.90 Z" />
	</g>
	<g id="#e2515aff">
		<path fill="#e2515a" opacity="1.00" d=" M 351.05 321.13 C 353.35 321.82 356.26 322.07 357.55 324.41 C 357.89 326.94 358.62 330.42 356.13 332.12 C 353.83 334.18 350.17 334.14 347.88 332.09 C 345.46 330.47 346.49 327.29 346.31 324.88 C 346.81 327.39 346.56 330.77 349.29 332.09 C 350.77 332.35 352.27 332.03 353.77 332.00 C 354.04 329.86 354.63 327.70 354.37 325.53 C 353.82 323.73 352.21 322.52 351.05 321.13 Z" />
	</g>
	<g id="#f37b1eff">
		<path fill="#f37b1e" opacity="1.00" d=" M 134.32 329.62 C 132.43 325.46 136.83 320.83 141.12 321.75 C 141.49 325.55 141.78 329.36 141.83 333.19 L 141.83 333.92 C 138.98 333.45 135.31 332.82 134.32 329.62 Z" />
	</g>
	<g id="#f79752ff">
		<path fill="#f79752" opacity="1.00" d=" M 141.12 321.75 C 143.53 322.93 146.31 324.80 145.76 327.92 C 146.11 330.54 143.58 331.86 141.83 333.19 C 141.78 329.36 141.49 325.55 141.12 321.75 Z" />
	</g>
	<g id="#d91f26ff">
		<path fill="#d91f26" opacity="1.00" d=" M 151.55 326.44 C 152.27 323.79 154.93 322.60 157.10 321.38 C 159.21 323.54 160.92 326.49 159.62 329.56 C 159.06 332.18 156.03 332.06 153.99 332.68 C 152.87 330.77 150.86 328.86 151.55 326.44 Z" />
	</g>
	<g id="#e25057ff">
		<path fill="#e25057" opacity="1.00" d=" M 157.10 321.38 C 159.70 321.82 162.75 322.32 163.84 325.12 C 166.03 328.31 162.90 331.67 160.17 333.15 C 158.21 334.39 155.99 333.10 153.99 332.68 C 156.03 332.06 159.06 332.18 159.62 329.56 C 160.92 326.49 159.21 323.54 157.10 321.38 Z" />
	</g>
	<g id="#d92027ff">
		<path fill="#d92027" opacity="1.00" d=" M 346.31 324.88 C 347.86 323.59 349.43 322.32 351.05 321.13 C 352.21 322.52 353.82 323.73 354.37 325.53 C 354.63 327.70 354.04 329.86 353.77 332.00 C 352.27 332.03 350.77 332.35 349.29 332.09 C 346.56 330.77 346.81 327.39 346.31 324.88 Z" />
	</g>
	<g id="#f47e22ff">
		<path fill="#f47e22" opacity="1.00" d=" M 367.39 322.35 C 369.88 321.19 373.47 321.40 375.19 323.80 C 377.25 327.15 375.68 332.46 371.71 333.53 C 368.57 333.87 365.08 331.84 364.40 328.63 C 363.82 326.15 365.33 323.64 367.39 322.35 Z" />
	</g>
	<g id="#949596ff">
		<path fill="#949596" opacity="1.00" d=" M 175.67 348.00 C 175.77 341.20 182.19 335.34 188.98 335.79 C 231.65 335.73 274.32 335.81 317.00 335.75 C 321.05 335.73 325.81 335.99 328.07 339.94 C 295.89 340.45 263.71 339.97 231.53 340.25 C 219.02 340.04 206.50 340.26 193.98 340.09 C 189.65 340.00 184.79 341.50 182.39 345.34 C 181.06 348.63 180.23 352.10 179.19 355.48 C 176.28 354.24 175.89 350.74 175.67 348.00 Z" />
	</g>
	<g id="#9ea0a3ff">
		<path fill="#9ea0a3" opacity="1.00" d=" M 182.39 345.34 C 184.79 341.50 189.65 340.00 193.98 340.09 C 206.50 340.26 219.02 340.04 231.53 340.25 C 263.71 339.97 295.89 340.45 328.07 339.94 C 331.07 341.17 331.55 345.13 331.53 348.01 C 331.94 353.55 327.22 358.51 321.97 359.56 C 324.31 357.03 327.26 354.75 328.32 351.34 C 329.23 348.77 328.09 346.14 327.51 343.63 C 326.99 343.51 325.95 343.27 325.43 343.14 C 324.90 346.31 324.91 350.01 322.33 352.34 C 319.19 355.74 314.20 355.30 310.00 355.37 C 299.67 355.14 289.34 355.30 279.04 356.08 C 261.62 356.25 244.19 356.60 226.80 357.87 C 221.75 358.27 216.61 357.78 211.66 359.09 C 205.50 360.12 199.21 359.26 193.00 359.55 C 189.03 359.37 184.56 360.33 181.08 357.89 C 180.48 357.16 178.69 356.63 179.19 355.48 C 180.23 352.10 181.06 348.63 182.39 345.34 Z" />
	</g>
	<g id="#d91f27ff">
		<path fill="#d91f27" opacity="1.00" d=" M 129.41 342.33 C 130.65 341.24 132.47 341.60 133.99 341.42 C 143.33 341.47 152.69 341.39 162.03 341.45 C 166.79 341.00 169.92 346.79 168.01 350.87 C 167.12 353.84 164.02 355.50 161.05 355.37 C 152.35 355.42 143.65 355.38 134.96 355.40 C 131.47 355.64 128.33 353.35 126.60 350.49 C 125.81 347.49 126.91 344.18 129.41 342.33 M 159.15 348.31 C 155.25 350.22 150.12 349.30 146.98 352.65 C 152.38 352.53 157.86 353.20 163.21 352.27 C 165.73 351.96 166.17 348.63 165.39 346.67 C 163.25 345.78 161.20 347.83 159.15 348.31 Z" />
		<path fill="#d91f27" opacity="1.00" d=" M 340.85 342.82 C 342.35 341.01 344.93 341.61 347.00 341.41 C 356.67 341.57 366.35 341.22 376.00 341.57 C 381.60 342.69 382.48 351.24 377.92 354.18 C 377.33 353.33 376.76 352.50 376.19 351.66 C 376.41 349.76 376.61 347.86 376.79 345.96 C 371.27 347.88 365.89 350.72 359.85 350.21 C 355.90 350.28 351.35 351.17 349.56 355.18 C 345.83 355.97 341.46 354.52 339.71 350.96 C 339.39 348.29 338.90 345.00 340.85 342.82 Z" />
	</g>
	<g id="#b7b9bcff">
		<path fill="#b7b9bc" opacity="1.00" d=" M 325.43 343.14 C 325.95 343.27 326.99 343.51 327.51 343.63 C 328.09 346.14 329.23 348.77 328.32 351.34 C 327.26 354.75 324.31 357.03 321.97 359.56 C 289.65 359.49 257.32 359.55 225.00 359.53 C 220.55 359.50 216.07 359.80 211.66 359.09 C 216.61 357.78 221.75 358.27 226.80 357.87 C 244.19 356.60 261.62 356.25 279.04 356.08 C 289.34 355.30 299.67 355.14 310.00 355.37 C 314.20 355.30 319.19 355.74 322.33 352.34 C 324.91 350.01 324.90 346.31 325.43 343.14 Z" />
	</g>
	<g id="#e87278ff">
		<path fill="#e87278" opacity="1.00" d=" M 159.15 348.31 C 161.20 347.83 163.25 345.78 165.39 346.67 C 166.17 348.63 165.73 351.96 163.21 352.27 C 157.86 353.20 152.38 352.53 146.98 352.65 C 150.12 349.30 155.25 350.22 159.15 348.31 Z" />
	</g>
	<g id="#e87378ff">
		<path fill="#e87378" opacity="1.00" d=" M 359.85 350.21 C 365.89 350.72 371.27 347.88 376.79 345.96 C 376.61 347.86 376.41 349.76 376.19 351.66 C 370.74 353.21 365.03 352.77 359.50 351.90 C 359.59 351.48 359.77 350.63 359.85 350.21 Z" />
	</g>
	<g id="#df3d3aff">
		<path fill="#df3d3a" opacity="1.00" d=" M 349.56 355.18 C 351.35 351.17 355.90 350.28 359.85 350.21 C 359.77 350.63 359.59 351.48 359.50 351.90 C 365.03 352.77 370.74 353.21 376.19 351.66 C 376.76 352.50 377.33 353.33 377.92 354.18 C 373.48 355.95 368.66 355.36 364.00 355.40 C 359.18 355.41 354.37 355.52 349.56 355.18 Z" />
	</g>
	<g id="#fdb814ff">
		<path fill="#fdb814" opacity="1.00" d=" M 111.69 365.90 C 113.62 367.02 115.59 368.39 117.94 368.22 C 205.29 368.14 292.65 368.22 380.00 368.18 C 385.77 368.07 391.70 368.94 397.29 367.07 C 397.98 367.84 398.68 368.89 399.89 368.69 C 403.10 368.64 406.30 368.99 409.48 369.40 C 409.05 374.89 409.69 380.42 409.17 385.90 C 408.76 387.75 406.38 387.14 405.02 387.36 C 394.43 387.33 383.84 387.34 373.25 387.35 C 354.90 387.37 336.56 387.34 318.21 387.36 C 276.39 387.29 234.58 387.40 192.76 387.31 L 191.76 387.29 C 173.57 387.39 155.39 387.39 137.21 387.29 L 136.33 387.28 C 125.88 387.39 115.43 387.31 104.98 387.36 C 103.58 387.15 101.26 387.74 100.75 385.92 C 100.32 381.62 100.56 377.28 100.54 372.96 C 100.45 371.27 100.96 368.82 103.04 368.66 C 105.89 368.35 108.77 368.55 111.63 368.59 C 111.64 367.69 111.66 366.79 111.69 365.90 Z" />
	</g>
	<g id="#4b4c4cff">
		<path fill="#4b4c4c" opacity="1.00" d=" M 136.33 387.28 L 137.21 387.29 L 137.32 388.05 C 136.12 395.38 138.28 402.66 137.93 410.01 C 138.13 415.89 137.16 421.89 138.42 427.69 C 141.86 436.32 146.38 445.52 154.95 450.07 C 160.15 453.07 166.38 453.25 171.64 456.07 C 167.23 457.61 162.56 456.81 158.00 457.01 C 156.54 456.80 155.71 458.13 154.57 458.74 C 153.27 458.60 151.98 458.46 150.70 458.30 C 143.52 455.37 137.83 448.62 136.60 440.93 C 136.24 423.05 136.72 405.16 136.33 387.28 Z" />
	</g>
	<g id="#363435ff">
		<path fill="#363435" opacity="1.00" d=" M 137.21 387.29 C 155.39 387.39 173.57 387.39 191.76 387.29 C 191.36 390.83 191.21 394.40 191.24 397.96 C 181.58 399.65 171.75 398.79 162.00 398.98 C 154.15 398.83 146.28 399.37 138.45 398.64 C 138.28 395.09 137.92 391.55 137.32 388.05 L 137.21 387.29 Z" />
		<path fill="#363435" opacity="1.00" d=" M 318.21 387.36 C 336.56 387.34 354.90 387.37 373.25 387.35 C 373.62 390.93 373.54 394.55 373.45 398.15 C 369.99 398.67 366.51 399.07 363.01 399.05 C 348.13 398.92 333.25 398.99 318.37 399.00 C 318.29 395.12 318.34 391.24 318.21 387.36 Z" />
	</g>
	<g id="#838282ff">
		<path fill="#838282" opacity="1.00" d=" M 191.76 387.29 L 192.76 387.31 C 193.25 389.15 193.30 391.07 193.31 392.98 C 193.24 406.66 193.29 420.34 193.30 434.02 C 193.15 442.57 189.98 451.60 182.51 456.42 C 176.33 461.01 168.30 460.51 161.01 460.46 C 157.52 460.25 153.66 460.48 150.70 458.30 C 151.98 458.46 153.27 458.60 154.57 458.74 C 160.97 459.51 167.50 459.72 173.92 458.99 C 183.65 456.69 192.23 447.37 191.41 437.00 C 191.24 423.99 191.50 410.97 191.24 397.96 C 191.21 394.40 191.36 390.83 191.76 387.29 Z" />
	</g>
	<g id="#3e3e3eff">
		<path fill="#3e3e3e" opacity="1.00" d=" M 137.32 388.05 C 137.92 391.55 138.28 395.09 138.45 398.64 C 146.28 399.37 154.15 398.83 162.00 398.98 C 171.75 398.79 181.58 399.65 191.24 397.96 C 191.50 410.97 191.24 423.99 191.41 437.00 C 192.23 447.37 183.65 456.69 173.92 458.99 C 167.50 459.72 160.97 459.51 154.57 458.74 C 155.71 458.13 156.54 456.80 158.00 457.01 C 162.56 456.81 167.23 457.61 171.64 456.07 C 166.38 453.25 160.15 453.07 154.95 450.07 C 146.38 445.52 141.86 436.32 138.42 427.69 C 137.16 421.89 138.13 415.89 137.93 410.01 C 138.28 402.66 136.12 395.38 137.32 388.05 Z" />
		<path fill="#3e3e3e" opacity="1.00" d=" M 363.01 399.05 C 366.51 399.07 369.99 398.67 373.45 398.15 C 373.54 411.43 373.48 424.72 373.49 438.00 C 373.74 442.25 371.56 446.05 369.60 449.65 C 367.66 453.08 364.53 455.74 360.87 457.17 C 355.41 456.36 350.20 454.44 344.86 453.10 C 338.45 451.46 332.41 447.93 328.37 442.62 C 325.10 438.53 323.74 433.38 321.64 428.67 C 318.56 432.55 320.40 437.81 322.04 441.91 C 325.51 451.08 335.20 457.36 344.96 456.95 C 348.30 457.18 352.52 455.83 354.70 459.19 C 349.51 460.08 344.22 459.55 338.99 459.65 C 330.50 459.89 323.24 453.58 319.74 446.25 C 318.03 443.47 318.41 440.10 318.30 436.98 C 318.35 424.32 318.22 411.66 318.37 399.00 C 333.25 398.99 348.13 398.92 363.01 399.05 Z" />
	</g>
	<g id="#4d4e4eff">
		<path fill="#4d4e4e" opacity="1.00" d=" M 322.04 441.91 C 320.40 437.81 318.56 432.55 321.64 428.67 C 323.74 433.38 325.10 438.53 328.37 442.62 C 332.41 447.93 338.45 451.46 344.86 453.10 C 350.20 454.44 355.41 456.36 360.87 457.17 C 359.13 458.36 356.88 460.29 354.70 459.19 C 352.52 455.83 348.30 457.18 344.96 456.95 C 335.20 457.36 325.51 451.08 322.04 441.91 Z" />
	</g>
</svg>